<?xml version="1.0" encoding="UTF-8" standalone="no"?>
<svg
   width="100%"
   height="100%"
   viewBox="0 0 512 512"
   version="1.1"
   xml:space="preserve"
   style="fill-rule:evenodd;clip-rule:evenodd;stroke-linecap:round;stroke-linejoin:round;stroke-miterlimit:1.5;"
   id="svg39"
   sodipodi:docname="occu-favicon.svg"
   inkscape:version="1.4.2 (ebf0e940, 2025-05-08)"
   xmlns:inkscape="http://www.inkscape.org/namespaces/inkscape"
   xmlns:sodipodi="http://sodipodi.sourceforge.net/DTD/sodipodi-0.dtd"
   xmlns="http://www.w3.org/2000/svg"
   xmlns:svg="http://www.w3.org/2000/svg"
   xmlns:serif="http://www.serif.com/"><defs
     id="defs39" /><sodipodi:namedview
     id="namedview39"
     pagecolor="#ffffff"
     bordercolor="#666666"
     borderopacity="1.0"
     inkscape:showpageshadow="2"
     inkscape:pageopacity="0.0"
     inkscape:pagecheckerboard="0"
     inkscape:deskcolor="#d1d1d1"
     inkscape:zoom="1.25"
     inkscape:cx="255.2"
     inkscape:cy="255.2"
     inkscape:window-width="1568"
     inkscape:window-height="991"
     inkscape:window-x="0"
     inkscape:window-y="38"
     inkscape:window-maximized="0"
     inkscape:current-layer="svg39" /><g
     id="Pieces"><path
       id="Bottom-Centre"
       serif:id="Bottom Centre"
       d="M64.116,504.454c-11.522,-20.405 -16.014,-40.699 -16.014,-59.375c0,-73.854 26.002,-145.386 85.006,-188.049c72.485,21.553 146.409,39.613 214.373,64.58c2.936,1.079 7.596,12.105 10.704,12.022c10.643,67.411 1.879,135.041 -61.877,175.855c-57.864,0.579 -96.061,-0.722 -190.873,-1.671c-16.139,-0.162 -29.796,-1.119 -41.319,-3.362Z"
       style="fill:#00355b;" /><path
       id="Lower-Right"
       serif:id="Lower Right"
       d="M296.308,509.487c38.114,-48.911 61.048,-109.793 61.877,-175.855c54.254,-1.452 105.304,-15.496 150.182,-39.237c-0.363,30.18 -1.098,64.12 -2.238,115.226c-1.736,77.759 -20.635,94.849 -95.042,97.195c-50.28,1.584 -85.114,2.375 -114.779,2.671Z"
       style="fill:#004b74;" /><path
       id="Centre"
       d="M305.109,162.245c41.585,32.839 62.547,74.411 62.547,136.635c-0,1.239 -9.455,33.516 -9.471,34.752c-3.108,0.083 -6.226,0.125 -9.355,0.125c-82.134,-0 -157.408,-28.857 -215.722,-76.727c32.335,-60.935 103.273,-98.657 172.001,-94.785Z"
       style="fill:#005a90;" /><path
       id="Centre-Right"
       serif:id="Centre Right"
       d="M508.367,294.395c-44.878,23.741 -95.928,37.785 -150.182,39.237c0.016,-1.236 0.024,-2.473 0.024,-3.712c-0,-62.224 -19.612,-119.991 -53.1,-167.675c16.713,-2.861 33.903,-4.352 51.445,-4.352c55.431,0 107.344,14.892 151.802,40.815c0.368,37.625 0.385,64.67 0.011,95.687Z"
       style="fill:#009acf;" /><path
       id="Left-Top"
       serif:id="Left Top"
       d="M133.108,257.03c-61.031,-42.728 -117.201,-153.789 -116.636,-218.927c13.62,-1.81 25.792,-4.307 39.783,-4.307c103.204,-0 194.385,50.886 248.854,128.449c-68.053,11.648 -128.195,45.996 -172.001,94.785Z"
       style="fill:#004e86;" /><path
       id="Left"
       d="M64.116,504.454c-40.961,-7.972 -54.953,-32.189 -57.558,-94.666c-6.159,-147.704 -6.154,-158.351 -2,-308.48c0.778,-28.118 5.71,-49.539 11.914,-63.205c10.063,86.855 51.708,165.626 116.636,218.927c-46.182,51.435 -74.209,118.919 -74.209,192.772c-0,18.677 1.792,36.946 5.217,54.652Z"
       style="fill:#003c6c;" /><path
       id="Upper"
       d="M508.356,198.708c-44.458,-25.923 -96.371,-40.815 -151.802,-40.815c-17.542,0 -34.732,1.491 -51.445,4.352c-54.469,-77.563 -145.65,-128.449 -248.854,-128.449c-13.095,-0 -28.254,2.718 -39.783,4.307c11.963,-19.911 39.691,-27.671 88.544,-30.399c151.399,-8.452 161.085,-9.068 306.236,-1c71.151,3.956 94.779,18.174 95.877,96.028c0.563,39.93 0.976,70.398 1.227,95.976Z"
       style="fill:#00ceff;" /></g><path
     d="M437.12,145.353c1.072,49.611 2.946,170.576 -0,220.847c-2.696,46 -24.426,68.38 -70.435,70.434c-45.732,2.042 -166.845,5.766 -221.847,0c-52.471,-5.5 -65.079,-24.199 -70.314,-70.314c-5.691,-50.133 -5.889,-171.269 0,-221.271c5.06,-42.958 20.619,-67.391 70.011,-70.01c49.791,-2.641 171.457,-4.425 222.27,-0c43.644,3.8 69.366,26.44 70.315,70.314Zm-45.929,0c-0,-13.459 -12.928,-23.253 -24.386,-24.385c-41.109,-4.065 -181.212,-4.014 -222.27,-0c-11.316,1.106 -22.727,12.828 -24.082,24.081c-4.98,41.348 -4.876,180.762 -0,221.271c1.372,11.395 12.928,23.251 24.385,24.385c41.039,4.065 180.788,4.085 221.847,0c11.513,-1.145 23.359,-13.028 24.506,-24.505c4.084,-40.892 4.927,-146.821 -0,-220.847Z"
     style="fill:#fff;"
     id="path1" /></svg>
